# xmcd CD database file
#
# Track frame offsets:
#	150
#	31761
#	67638
#	87914
#	124671
#	150338
#	166667
#	195883
#	236949
#	289732
#	338483
#
# Disc length: 4757 seconds
#
# Revision: 0
# Processed by: cddbd v1.5.2PL0 Copyright (c) Steve Scherf et al.
# Submitted via: Feurio! 1.68 - http://www.feurio.com
#
DISCID=7a12930b
DTITLE=Albert Collins - On the Waterfront   Rockford, IL   09-05-93
DYEAR=1900
DGENRE=
TTITLE0=Albert Collins  - instrumental (Band Only)
TTITLE1=instrumental (Band Only)
TTITLE2=Travelin' South
TTITLE3=Albert Collins  - If Trouble Was Money
TTITLE4=Albert Collins  - Put The Shoe On The Other Foot
TTITLE5=Albert Collins  - You Talk Too Much
TTITLE6=Black Cat Bone
TTITLE7=Albert Collins  - I Ain't Drunk
TTITLE8=Albert Collins  - Your Lights Are On, But Nobodies Home
TTITLE9=Albert Collins  - Iceman
TTITLE10=Albert Collins  - Frosty
EXTD=
EXTT0=
EXTT1=
EXTT2=
EXTT3=
EXTT4=
EXTT5=
EXTT6=
EXTT7=
EXTT8=
EXTT9=
EXTT10=
PLAYORDER=
